<svg width="21" height="19" viewBox="0 0 21 19" fill="none" xmlns="http://www.w3.org/2000/svg">
<path d="M1.42473 14.8331C1.60404 16.2774 2.77082 17.4182 4.21831 17.5696C6.22127 17.7789 8.29715 18 10.4245 18C12.5518 18 14.6276 17.7789 16.6306 17.5696C18.078 17.4182 19.2448 16.2774 19.4241 14.8331C19.6383 13.1087 19.8489 11.3254 19.8489 9.50002C19.8489 7.67463 19.6383 5.89135 19.4241 4.16699C19.2448 2.72272 18.078 1.58177 16.6306 1.43045C14.6276 1.22108 12.5518 1 10.4245 1C8.29715 1 6.22125 1.22108 4.21831 1.43045C2.77082 1.58177 1.60404 2.72272 1.42472 4.16699C1.21064 5.89135 1 7.67463 1 9.50002C1 11.3254 1.21064 13.1087 1.42473 14.8331Z" fill="#F5D7FF" stroke="#652E86" stroke-width="1.71429"/>
<path d="M1.4668 3.77661L8.55719 9.36714C9.65229 10.2306 11.1966 10.2306 12.2917 9.36714L19.3821 3.77661" stroke="#652E86" stroke-width="1.71429" stroke-linejoin="round"/>
</svg>
