<svg width="16" height="20" viewBox="0 0 16 20" fill="none" xmlns="http://www.w3.org/2000/svg">
<path d="M8.9013 18.6798C10.7761 17.055 15.1043 12.7913 15.1043 8.05217C15.1043 4.15736 11.947 1 8.05217 1C4.15737 1 1 4.15736 1 8.05217C1 12.7913 5.32817 17.055 7.20302 18.6798C7.69574 19.1067 8.40859 19.1067 8.9013 18.6798Z" fill="#F5D7FF" stroke="#652E86" stroke-width="1.71429" stroke-linecap="round" stroke-linejoin="round"/>
<path d="M8.05226 10.5266C9.64749 10.5266 10.9407 9.23344 10.9407 7.63819C10.9407 6.04295 9.64749 4.74976 8.05226 4.74976C6.45701 4.74976 5.16382 6.04295 5.16382 7.63819C5.16382 9.23344 6.45701 10.5266 8.05226 10.5266Z" fill="white" stroke="#652E86" stroke-width="1.71429" stroke-linecap="round" stroke-linejoin="round"/>
</svg>
